<svg id="Ebene_1" data-name="Ebene 1" xmlns="http://www.w3.org/2000/svg" viewBox="0 0 1000 1000"><defs><style>.cls-1{fill:#acb1a4;}.cls-2{fill:#fff;}</style></defs><title>Zeichenfläche 1</title><rect class="cls-1" width="1000" height="1000"/><path class="cls-2" d="M185.5,569.12a51.7,51.7,0,0,1-15.37-2.63,28.46,28.46,0,0,1-13.88-9.37l3-3A26.71,26.71,0,0,0,170,561.87a38.92,38.92,0,0,0,15.5,3,34.31,34.31,0,0,0,11.63-2A20.12,20.12,0,0,0,206.5,556q3.75-4.87,3.75-13.12,0-7.5-4-11.88a26.56,26.56,0,0,0-10.12-6.75q-6.13-2.37-12.88-4.62A64,64,0,0,1,167,511.37q-7-5-7-16,0-8,3.63-13.25a23.18,23.18,0,0,1,9.62-8,29.7,29.7,0,0,1,12.5-2.75,40.64,40.64,0,0,1,13,2.5,30.79,30.79,0,0,1,12.75,8.5l-2.75,3.25a23.31,23.31,0,0,0-11-7.5A38,38,0,0,0,186,475.87a26,26,0,0,0-9.37,1.87,20.1,20.1,0,0,0-8.38,6.13q-3.51,4.26-3.5,11a15.64,15.64,0,0,0,3,9.87,21.78,21.78,0,0,0,7.88,6.25A104.87,104.87,0,0,0,186,515.37q6.75,2.5,13.5,5.25a29.86,29.86,0,0,1,11.13,7.62c2.91,3.25,4.37,7.72,4.37,13.38A29.29,29.29,0,0,1,211.63,556a23.9,23.9,0,0,1-9.88,9.63Q195.24,569.12,185.5,569.12Z"/><path class="cls-2" d="M249.25,442.87a5.32,5.32,0,0,1,1.62-3.88,5.61,5.61,0,0,1,4.13-1.62,5.5,5.5,0,0,1,0,11,5.58,5.58,0,0,1-4.13-1.63A5.28,5.28,0,0,1,249.25,442.87Zm3,29.75h5v94.5h-5Z"/><path class="cls-2" d="M308,472.62l1,30.5-.75-3.5a37.07,37.07,0,0,1,15.62-21.13,46.21,46.21,0,0,1,25.88-7.62q13.25,0,21.12,7.87T379,498.87v68.25h-5V499.37a24.92,24.92,0,0,0-6.63-16.88q-6.37-6.87-18.12-7.37a42.85,42.85,0,0,0-19.63,4.62,38.44,38.44,0,0,0-14.75,13,34.39,34.39,0,0,0-5.62,19.63v54.75h-5v-94.5Z"/><path class="cls-2" d="M429.75,472.62l1,30.5-.75-3.5a37.07,37.07,0,0,1,15.62-21.13,46.21,46.21,0,0,1,25.88-7.62q13.25,0,21.12,7.87t8.13,20.13v68.25h-5V499.37a24.92,24.92,0,0,0-6.63-16.88q-6.37-6.87-18.12-7.37a42.85,42.85,0,0,0-19.63,4.62,38.44,38.44,0,0,0-14.75,13A34.39,34.39,0,0,0,431,512.37v54.75h-5v-94.5Z"/><path class="cls-2" d="M597.5,568.62a46.76,46.76,0,0,1-28-9,49.64,49.64,0,0,1-17.75-22.25l1-5.5v35.25h-5v-188h5v125.5l-.25-4.25a45.61,45.61,0,0,1,17.62-21.5,48.72,48.72,0,0,1,27.63-8.25,47.3,47.3,0,0,1,24.5,6.5,49.74,49.74,0,0,1,17.62,17.62,47.7,47.7,0,0,1,6.63,24.88q0,16-6.75,27a43,43,0,0,1-17.88,16.5A54.19,54.19,0,0,1,597.5,568.62Zm-.25-4.25q13.74,0,23.75-5.75a38.37,38.37,0,0,0,15.25-15.88,49.48,49.48,0,0,0,5.25-23.12,45.7,45.7,0,0,0-5.5-22.13,44,44,0,0,0-15.38-16.37q-9.87-6.24-23.37-6.25a45.29,45.29,0,0,0-21,4.87,43.72,43.72,0,0,0-23.5,32.13v11.75a35.64,35.64,0,0,0,6,19.75,46.78,46.78,0,0,0,16.12,15.12A43.76,43.76,0,0,0,597.25,564.37Z"/><path class="cls-2" d="M722.25,568.62a47.18,47.18,0,0,1-24.5-6.5,49.84,49.84,0,0,1-17.63-17.5,47,47,0,0,1-6.62-24.75q0-15.75,6.75-26.75a44.86,44.86,0,0,1,17.87-16.75A53.43,53.43,0,0,1,723,470.62,46.24,46.24,0,0,1,749.87,479a48.51,48.51,0,0,1,17.63,21.63l-.5,3.25,1.25-31.25H772v94.5h-4.75V534.87l.75,3.5a43.41,43.41,0,0,1-7,12A50.18,50.18,0,0,1,750.5,560a49.19,49.19,0,0,1-13.13,6.38A49.92,49.92,0,0,1,722.25,568.62Zm.5-4.25a45.39,45.39,0,0,0,22.25-5.5,42.89,42.89,0,0,0,16-15.13,42.16,42.16,0,0,0,6.25-21.87V511.62a43.57,43.57,0,0,0-8.38-18.5,48.57,48.57,0,0,0-15.75-13.25,42.65,42.65,0,0,0-20.37-5,46.19,46.19,0,0,0-22.38,5.5,40.65,40.65,0,0,0-16,15.62q-5.88,10.13-5.87,23.63a43.5,43.5,0,0,0,6,22.62,45.62,45.62,0,0,0,16,16.13A42.39,42.39,0,0,0,722.75,564.37Z"/><path class="cls-2" d="M822.75,472.62l.75,29.5-.5-2.75a35.45,35.45,0,0,1,9.12-15.25A44.53,44.53,0,0,1,847,474.49a51.52,51.52,0,0,1,17.75-3.62l-.25,4.5a45,45,0,0,0-20.25,5.12,39.43,39.43,0,0,0-14.75,13.13,33.44,33.44,0,0,0-5.5,19v54.5h-5v-94.5Z"/></svg>